REM DIRINDEX 1\2,1\3,1\4,1\5
REM DIRNAME cjc004,folder01,folder02,folder03,folder04
TITLE ""
FILE "1Q_j_2185-2198.mp3" MP3
  TRACK 01 AUDIO
    TITLE "3:cjc004_0254"
    INDEX 01 00:00:00
  TRACK 02 AUDIO
    TITLE "0:"
    INDEX 01 00:01:17
  TRACK 03 AUDIO
    TITLE "4:cjc004_0255"
    INDEX 01 00:01:42
  TRACK 04 AUDIO
    TITLE "0:"
    INDEX 01 00:03:02
  TRACK 05 AUDIO
    TITLE "5:cjc004_0256"
    INDEX 01 00:03:27
  TRACK 06 AUDIO
    TITLE "0:"
    INDEX 01 00:07:43
  TRACK 07 AUDIO
    TITLE "3:cjc004_0257"
    INDEX 01 00:08:28
  TRACK 08 AUDIO
    TITLE "0:"
    INDEX 01 00:09:61
  TRACK 09 AUDIO
    TITLE "4:cjc004_0258"
    INDEX 01 00:10:14
  TRACK 10 AUDIO
    TITLE "0:"
    INDEX 01 00:11:50
  TRACK 11 AUDIO
    TITLE "5:cjc004_0259"
    INDEX 01 00:12:03
  TRACK 12 AUDIO
    TITLE "0:"
    INDEX 01 00:16:71
  TRACK 13 AUDIO
    TITLE "3:cjc004_0260"
    INDEX 01 00:17:61
  TRACK 14 AUDIO
    TITLE "0:"
    INDEX 01 00:19:13
  TRACK 15 AUDIO
    TITLE "4:cjc004_0261"
    INDEX 01 00:19:44
  TRACK 16 AUDIO
    TITLE "0:"
    INDEX 01 00:21:09
  TRACK 17 AUDIO
    TITLE "5:cjc004_0262"
    INDEX 01 00:21:35
  TRACK 18 AUDIO
    TITLE "0:"
    INDEX 01 00:27:39
  TRACK 19 AUDIO
    TITLE "3:cjc004_0263"
    INDEX 01 00:28:31
  TRACK 20 AUDIO
    TITLE "0:"
    INDEX 01 00:29:44
  TRACK 21 AUDIO
    TITLE "4:cjc004_0264"
    INDEX 01 00:29:74
  TRACK 22 AUDIO
    TITLE "0:"
    INDEX 01 00:32:07
  TRACK 23 AUDIO
    TITLE "5:cjc004_0265"
    INDEX 01 00:32:35
  TRACK 24 AUDIO
    TITLE "0:"
    INDEX 01 00:37:28
  TRACK 25 AUDIO
    TITLE "3:cjc004_0266"
    INDEX 01 00:38:06
  TRACK 26 AUDIO
    TITLE "0:"
    INDEX 01 00:39:25
  TRACK 27 AUDIO
    TITLE "4:cjc004_0267"
    INDEX 01 00:39:52
  TRACK 28 AUDIO
    TITLE "0:"
    INDEX 01 00:41:20
  TRACK 29 AUDIO
    TITLE "5:cjc004_0268"
    INDEX 01 00:41:42
  TRACK 30 AUDIO
    TITLE "0:"
    INDEX 01 00:46:02
  TRACK 31 AUDIO
    TITLE "3:cjc004_0269"
    INDEX 01 00:46:56
  TRACK 32 AUDIO
    TITLE "0:"
    INDEX 01 00:48:40
  TRACK 33 AUDIO
    TITLE "4:cjc004_0270"
    INDEX 01 00:48:69
  TRACK 34 AUDIO
    TITLE "0:"
    INDEX 01 00:50:44
  TRACK 35 AUDIO
    TITLE "5:cjc004_0271"
    INDEX 01 00:50:70
  TRACK 36 AUDIO
    TITLE "0:"
    INDEX 01 00:55:59
  TRACK 37 AUDIO
    TITLE "3:cjc004_0272"
    INDEX 01 00:56:45
  TRACK 38 AUDIO
    TITLE "0:"
    INDEX 01 00:57:68
  TRACK 39 AUDIO
    TITLE "4:cjc004_0273"
    INDEX 01 00:58:18
  TRACK 40 AUDIO
    TITLE "0:"
    INDEX 01 00:59:22
  TRACK 41 AUDIO
    TITLE "5:cjc004_0274"
    INDEX 01 00:59:45
  TRACK 42 AUDIO
    TITLE "0:"
    INDEX 01 01:05:22
  TRACK 43 AUDIO
    TITLE "3:cjc004_0275"
    INDEX 01 01:06:04
  TRACK 44 AUDIO
    TITLE "0:"
    INDEX 01 01:07:25
  TRACK 45 AUDIO
    TITLE "4:cjc004_0276"
    INDEX 01 01:07:61
  TRACK 46 AUDIO
    TITLE "0:"
    INDEX 01 01:09:12
  TRACK 47 AUDIO
    TITLE "5:cjc004_0277"
    INDEX 01 01:09:42
  TRACK 48 AUDIO
    TITLE "0:"
    INDEX 01 01:12:34
  TRACK 49 AUDIO
    TITLE "3:cjc004_0278"
    INDEX 01 01:13:16
  TRACK 50 AUDIO
    TITLE "0:"
    INDEX 01 01:14:37
  TRACK 51 AUDIO
    TITLE "4:cjc004_0279"
    INDEX 01 01:14:68
  TRACK 52 AUDIO
    TITLE "0:"
    INDEX 01 01:16:14
  TRACK 53 AUDIO
    TITLE "5:cjc004_0280"
    INDEX 01 01:16:42
  TRACK 54 AUDIO
    TITLE "0:"
    INDEX 01 01:21:55
  TRACK 55 AUDIO
    TITLE "3:cjc004_0281"
    INDEX 01 01:22:31
  TRACK 56 AUDIO
    TITLE "0:"
    INDEX 01 01:24:36
  TRACK 57 AUDIO
    TITLE "4:cjc004_0282"
    INDEX 01 01:24:67
  TRACK 58 AUDIO
    TITLE "0:"
    INDEX 01 01:28:10
  TRACK 59 AUDIO
    TITLE "5:cjc004_0283"
    INDEX 01 01:28:35
  TRACK 60 AUDIO
    TITLE "0:"
    INDEX 01 01:31:67
  TRACK 61 AUDIO
    TITLE "3:cjc004_0284"
    INDEX 01 01:32:53
  TRACK 62 AUDIO
    TITLE "0:"
    INDEX 01 01:33:64
  TRACK 63 AUDIO
    TITLE "4:cjc004_0285"
    INDEX 01 01:34:18
  TRACK 64 AUDIO
    TITLE "0:"
    INDEX 01 01:36:07
  TRACK 65 AUDIO
    TITLE "5:cjc004_0286"
    INDEX 01 01:36:33
  TRACK 66 AUDIO
    TITLE "0:"
    INDEX 01 01:40:40
  TRACK 67 AUDIO
    TITLE "3:cjc004_0287"
    INDEX 01 01:41:22
  TRACK 68 AUDIO
    TITLE "0:"
    INDEX 01 01:42:43
  TRACK 69 AUDIO
    TITLE "4:cjc004_0288"
    INDEX 01 01:42:69
  TRACK 70 AUDIO
    TITLE "0:"
    INDEX 01 01:44:70
  TRACK 71 AUDIO
    TITLE "5:cjc004_0289"
    INDEX 01 01:45:18
  TRACK 72 AUDIO
    TITLE "0:"
    INDEX 01 01:49:47
  TRACK 73 AUDIO
    TITLE "3:cjc004_0290"
    INDEX 01 01:50:25
  TRACK 74 AUDIO
    TITLE "0:"
    INDEX 01 01:51:58
  TRACK 75 AUDIO
    TITLE "4:cjc004_0291"
    INDEX 01 01:52:10
  TRACK 76 AUDIO
    TITLE "0:"
    INDEX 01 01:53:67
  TRACK 77 AUDIO
    TITLE "5:cjc004_0292"
    INDEX 01 01:54:15
  TRACK 78 AUDIO
    TITLE "0:"
    INDEX 01 01:57:70
  TRACK 79 AUDIO
    TITLE "3:cjc004_0293"
    INDEX 01 01:58:46
  TRACK 80 AUDIO
    TITLE "0:"
    INDEX 01 02:00:14
  TRACK 81 AUDIO
    TITLE "4:cjc004_0294"
    INDEX 01 02:00:41
  TRACK 82 AUDIO
    TITLE "0:"
    INDEX 01 02:02:05
  TRACK 83 AUDIO
    TITLE "5:cjc004_0295"
    INDEX 01 02:02:30
  TRACK 84 AUDIO
    TITLE "0:"
    INDEX 01 02:07:16
